<?xml version="1.0" encoding="utf-8"?>
<!-- Generator: Adobe Illustrator 26.0.1, SVG Export Plug-In . SVG Version: 6.00 Build 0)  -->
<svg version="1.1" id="Layer_1" xmlns="http://www.w3.org/2000/svg" xmlns:xlink="http://www.w3.org/1999/xlink" x="0px" y="0px"
	 viewBox="0 0 1728 1296" style="enable-background:new 0 0 1728 1296;" xml:space="preserve">
<style type="text/css">
	.st0{stroke:#1D1D1B;stroke-miterlimit:10;}
	.st1{fill:#F2F2F2;stroke:#1D1D1B;stroke-miterlimit:10;}
</style>
<circle class="st0" cx="750.43" cy="598.09" r="194.15"/>
<path class="st1" d="M633.21,699.74c0,0,16.37-32.44,29.64-76.07c7.18-23.61,13.45-50.5,15.72-77.29c0,0,73.44-20.88,118.08-16.56
	c0,0,25.2,6.48,0,18s-40.64,15.12-40.64,15.12s-24.16,8.64-32.08,24.48c-7.92,15.84-20.16,26.64,9.36,18.72
	c29.52-7.92,25.92,1.44,25.92,1.44s1.51,6.48-3.2,12.96c-4.72,6.48-15.52,9.36-23.44,10.8s-38.88,14.4-38.88,14.4
	s-10.08,5.76-18,20.16c-7.92,14.4-18,25.2-18,25.2S627.45,727.82,633.21,699.74z"/>
<path class="st1" d="M749.23,658.45c0,0,39.07,23.23,66.56-12.86c27.48-36.09,46.45-140.08,46.45-140.08s9.82-19.94-16.94-14.8
	c-26.77,5.14-21.71,4.54-21.71,4.54s-31.32,18.72,3.67,14.49c0,0,19.84-3.14,4.78,25.32c0,0-20.93,70.72-26.33,82.89
	c-5.4,12.16-10.1,28.62-38.16,27.25C739.49,643.82,725.83,642.78,749.23,658.45z"/>
</svg>
